<?xml version="1.0" encoding="UTF-8"?>
<!DOCTYPE svg PUBLIC "-//W3C//DTD SVG 1.1//EN" "http://www.w3.org/Graphics/SVG/1.1/DTD/svg11.dtd">
<!-- Creator: CorelDRAW -->
<svg xmlns="http://www.w3.org/2000/svg" xml:space="preserve" width="2.54mm" height="1.6978mm" style="shape-rendering:geometricPrecision; text-rendering:geometricPrecision; image-rendering:optimizeQuality; fill-rule:evenodd; clip-rule:evenodd"
viewBox="0 0 0.146666 0.0980352"
 xmlns:xlink="http://www.w3.org/1999/xlink">
 <defs>
  <style type="text/css">
   <![CDATA[
    .fil1 {fill:#FEFEFE}
    .fil0 {fill:#009E9A}
    .fil2 {fill:#FEFEFE}
   ]]>
  </style>
 </defs>
 <g id="Camada_x0020_1">
  <metadata id="CorelCorpID_0Corel-Layer"/>
  <path class="fil0" d="M0.135857 0.000415746l-0.124724 -0.000409972c-0.00599367,-1.73227e-005 -0.0108614,0.00481572 -0.0108845,0.0108094l-0.000248293 0.0759256c-1.73227e-005,0.00597057 0.00481572,0.0108614 0.0108094,0.0108787l0.124724 0.000409972c0.0059879,1.73227e-005 0.0108614,-0.00483305 0.0108787,-0.0108209l0.000254067 -0.0759141c1.73227e-005,-0.0059879 -0.0048215,-0.0108614 -0.0108094,-0.0108787z"/>
  <rect class="fil1" x="0.00627524" y="0.00863998" width="0.134115" height="0.00243808"/>
  <circle class="fil1" cx="0.0381818" cy="0.0358252" r="0.0167499"/>
  <rect class="fil1" x="0.0169496" y="0.0603597" width="0.0424643" height="0.00471805"/>
  <rect class="fil1" x="0.0110514" y="0.0707399" width="0.0542606" height="0.00849259"/>
  <rect class="fil1" x="0.0931496" y="0.0334662" width="0.0424643" height="0.00471805"/>
  <g id="_197486664">
   <path id="_197487048" class="fil2" d="M0.093156 0.0528055c0.0141585,0 0.0283111,0 0.0424638,0 0,0.00157637 0,0.00314697 0,0.00471756 -0.0141527,0 -0.0283054,0 -0.0424638,0 0,-0.0015706 0,-0.00314119 0,-0.00471756z"/>
  </g>
  <rect class="fil1" x="0.0931496" y="0.0721551" width="0.0424643" height="0.00471805"/>
 </g>
</svg>
