<?xml version="1.0" encoding="UTF-8"?>
<!DOCTYPE svg PUBLIC "-//W3C//DTD SVG 1.1//EN" "http://www.w3.org/Graphics/SVG/1.1/DTD/svg11.dtd">
<!-- Creator: CorelDRAW -->
<svg xmlns="http://www.w3.org/2000/svg" xml:space="preserve" width="1.6494mm" height="2.1168mm" style="shape-rendering:geometricPrecision; text-rendering:geometricPrecision; image-rendering:optimizeQuality; fill-rule:evenodd; clip-rule:evenodd"
viewBox="0 0 0.0526557 0.0675771"
 xmlns:xlink="http://www.w3.org/1999/xlink">
 <defs>
  <style type="text/css">
   <![CDATA[
    .fil0 {fill:#ED3237}
   ]]>
  </style>
 </defs>
 <g id="Camada_x0020_1">
  <metadata id="CorelCorpID_0Corel-Layer"/>
  <g id="_196744696">
   <path id="_197487576" class="fil0" d="M0.0122876 0.0217531l0.00488759 0 0 0.0393018 -0.00488759 0 0 -0.0393018zm0.011598 0l0.00488759 0 0 0.0393018 -0.00488759 0 0 -0.0393018zm0.0115949 0l0.00488759 0 0 0.0393018 -0.00488759 0 0 -0.0393018zm-0.0353592 -0.00633056l1.91545e-005 0 0.00287317 0.00240708 0 0.045693c0,0.00223788 0.0018101,0.00405437 0.00405118,0.00405437l0.0385293 0c0.00223788,0 0.00405118,-0.00181648 0.00405118,-0.00405437l0 -0.045693 0.00287317 -0.00240708 1.59621e-005 0 0 -0.00401287 -0.0524131 0 0 0.00401287z"/>
   <path id="_197487888" class="fil0" d="M0.0315953 0.00464177l-0.0105318 0 0 -0.00110458c0,-0.00029051 0.000236239,-0.000526749 0.000526749,-0.000526749l0.00947828 0c0.00029051,0 0.000526749,0.000236239 0.000526749,0.000526749l0 0.00110458zm0.0200739 0.00100242l-0.0170667 0 0 -0.00399371c0,-0.000909839 -0.000737448,-0.00165048 -0.00165048,-0.00165048l-0.0132485 0c-0.000909839,0 -0.00165048,0.00074064 -0.00165048,0.00165048l3.19242e-006 0.00399371 -0.0170667 0c-0.000545903,0 -0.000989649,0.000440553 -0.000989649,0.000983264l0 0.00315411 0.0526557 0 0 -0.00315411c0,-0.000542711 -0.000443746,-0.000983264 -0.000986457,-0.000983264z"/>
  </g>
 </g>
</svg>
